<svg width="641" height="407" viewBox="0 0 641 407" fill="none" xmlns="http://www.w3.org/2000/svg">
<rect width="6" height="407" rx="3" transform="matrix(-1 0 0 1 285 0)" fill="#8B8B8B"/>
<rect x="258" y="310" width="48" height="48" rx="24" fill="#F8F8F8" stroke="#8B8B8B" stroke-width="2"/>
<rect x="258" y="176" width="48" height="48" rx="24" fill="#F8F8F8" stroke="#8B8B8B" stroke-width="2"/>
<rect x="258" y="45" width="48" height="48" rx="24" fill="#F8F8F8" stroke="#8B8B8B" stroke-width="2"/>
<rect x="269" y="56" width="25" height="25" rx="12.5" fill="#FDAE9C"/>
<rect x="269" y="187" width="25" height="25" rx="12.5" fill="#FDAE9C"/>
<rect x="269" y="321" width="25" height="25" rx="12.5" fill="#FDAE9C"/>
<path d="M7.87337 114L5.10137 109.104H3.91337V114H1.39337V101.436H6.10937C7.08137 101.436 7.90937 101.61 8.59337 101.958C9.27737 102.294 9.78737 102.756 10.1234 103.344C10.4714 103.92 10.6454 104.568 10.6454 105.288C10.6454 106.116 10.4054 106.866 9.92537 107.538C9.44537 108.198 8.73137 108.654 7.78337 108.906L10.7894 114H7.87337ZM3.91337 107.214H6.01937C6.70337 107.214 7.21337 107.052 7.54937 106.728C7.88537 106.392 8.05337 105.93 8.05337 105.342C8.05337 104.766 7.88537 104.322 7.54937 104.01C7.21337 103.686 6.70337 103.524 6.01937 103.524H3.91337V107.214ZM16.3446 103.47V106.62H20.5746V108.618H16.3446V111.948H21.1146V114H13.8246V101.418H21.1146V103.47H16.3446ZM31.6307 101.436V110.256C31.6307 111.48 31.2767 112.434 30.5687 113.118C29.8607 113.79 28.9127 114.126 27.7247 114.126C26.5247 114.126 25.5527 113.778 24.8087 113.082C24.0767 112.386 23.7107 111.414 23.7107 110.166H26.2307C26.2427 110.706 26.3687 111.126 26.6087 111.426C26.8607 111.726 27.2207 111.876 27.6887 111.876C28.1447 111.876 28.4927 111.732 28.7327 111.444C28.9727 111.156 29.0927 110.76 29.0927 110.256V101.436H31.6307ZM37.9903 103.47V106.62H42.2203V108.618H37.9903V111.948H42.7603V114H35.4703V101.418H42.7603V103.47H37.9903ZM50.2884 114.126C49.4124 114.126 48.6204 113.976 47.9124 113.676C47.2164 113.376 46.6644 112.944 46.2564 112.38C45.8484 111.816 45.6384 111.15 45.6264 110.382H48.3264C48.3624 110.898 48.5424 111.306 48.8664 111.606C49.2024 111.906 49.6584 112.056 50.2344 112.056C50.8224 112.056 51.2844 111.918 51.6204 111.642C51.9564 111.354 52.1244 110.982 52.1244 110.526C52.1244 110.154 52.0104 109.848 51.7824 109.608C51.5544 109.368 51.2664 109.182 50.9184 109.05C50.5824 108.906 50.1144 108.75 49.5144 108.582C48.6984 108.342 48.0324 108.108 47.5164 107.88C47.0124 107.64 46.5744 107.286 46.2024 106.818C45.8424 106.338 45.6624 105.702 45.6624 104.91C45.6624 104.166 45.8484 103.518 46.2204 102.966C46.5924 102.414 47.1144 101.994 47.7864 101.706C48.4584 101.406 49.2264 101.256 50.0904 101.256C51.3864 101.256 52.4364 101.574 53.2404 102.21C54.0564 102.834 54.5064 103.71 54.5904 104.838H51.8184C51.7944 104.406 51.6084 104.052 51.2604 103.776C50.9244 103.488 50.4744 103.344 49.9104 103.344C49.4184 103.344 49.0224 103.47 48.7224 103.722C48.4344 103.974 48.2904 104.34 48.2904 104.82C48.2904 105.156 48.3984 105.438 48.6144 105.666C48.8424 105.882 49.1184 106.062 49.4424 106.206C49.7784 106.338 50.2464 106.494 50.8464 106.674C51.6624 106.914 52.3284 107.154 52.8444 107.394C53.3604 107.634 53.8044 107.994 54.1764 108.474C54.5484 108.954 54.7344 109.584 54.7344 110.364C54.7344 111.036 54.5604 111.66 54.2124 112.236C53.8644 112.812 53.3544 113.274 52.6824 113.622C52.0104 113.958 51.2124 114.126 50.2884 114.126ZM66.3691 101.436V103.47H63.0211V114H60.5011V103.47H57.1531V101.436H66.3691ZM75.5878 114L72.8158 109.104H71.6278V114H69.1078V101.436H73.8238C74.7958 101.436 75.6238 101.61 76.3078 101.958C76.9918 102.294 77.5018 102.756 77.8378 103.344C78.1858 103.92 78.3598 104.568 78.3598 105.288C78.3598 106.116 78.1198 106.866 77.6398 107.538C77.1598 108.198 76.4458 108.654 75.4978 108.906L78.5038 114H75.5878ZM71.6278 107.214H73.7338C74.4178 107.214 74.9278 107.052 75.2638 106.728C75.5998 106.392 75.7678 105.93 75.7678 105.342C75.7678 104.766 75.5998 104.322 75.2638 104.01C74.9278 103.686 74.4178 103.524 73.7338 103.524H71.6278V107.214ZM89.2431 111.606H84.2391L83.4111 114H80.7651L85.2831 101.418H88.2171L92.7351 114H90.0711L89.2431 111.606ZM88.5591 109.59L86.7411 104.334L84.9231 109.59H88.5591ZM94.7118 107.7C94.7118 106.464 94.9878 105.36 95.5398 104.388C96.1038 103.404 96.8658 102.642 97.8258 102.102C98.7978 101.55 99.8838 101.274 101.084 101.274C102.488 101.274 103.718 101.634 104.774 102.354C105.83 103.074 106.568 104.07 106.988 105.342H104.09C103.802 104.742 103.394 104.292 102.866 103.992C102.35 103.692 101.75 103.542 101.066 103.542C100.334 103.542 99.6798 103.716 99.1038 104.064C98.5398 104.4 98.0958 104.88 97.7718 105.504C97.4598 106.128 97.3038 106.86 97.3038 107.7C97.3038 108.528 97.4598 109.26 97.7718 109.896C98.0958 110.52 98.5398 111.006 99.1038 111.354C99.6798 111.69 100.334 111.858 101.066 111.858C101.75 111.858 102.35 111.708 102.866 111.408C103.394 111.096 103.802 110.64 104.09 110.04H106.988C106.568 111.324 105.83 112.326 104.774 113.046C103.73 113.754 102.5 114.108 101.084 114.108C99.8838 114.108 98.7978 113.838 97.8258 113.298C96.8658 112.746 96.1038 111.984 95.5398 111.012C94.9878 110.04 94.7118 108.936 94.7118 107.7ZM117.366 101.436V110.256C117.366 111.48 117.012 112.434 116.304 113.118C115.596 113.79 114.648 114.126 113.46 114.126C112.26 114.126 111.288 113.778 110.544 113.082C109.812 112.386 109.446 111.414 109.446 110.166H111.966C111.978 110.706 112.104 111.126 112.344 111.426C112.596 111.726 112.956 111.876 113.424 111.876C113.88 111.876 114.228 111.732 114.468 111.444C114.708 111.156 114.828 110.76 114.828 110.256V101.436H117.366ZM128.91 111.606H123.906L123.078 114H120.432L124.95 101.418H127.884L132.402 114H129.738L128.91 111.606ZM128.226 109.59L126.408 104.334L124.59 109.59H128.226Z" fill="#525252"/>
<path d="M1.008 58.2V54.588H7.756V75H3.724V58.2H1.008ZM26.0205 57.556L18.5725 75H14.5965L22.1005 58.004H12.5245V54.644H26.0205V57.556ZM42.1444 63.352V66.656H30.2724V63.352H42.1444ZM48.7246 70.576C50.5166 69.0827 51.9446 67.8413 53.0086 66.852C54.0726 65.844 54.9593 64.7987 55.6686 63.716C56.3779 62.6333 56.7326 61.5693 56.7326 60.524C56.7326 59.572 56.5086 58.8253 56.0606 58.284C55.6126 57.7427 54.9219 57.472 53.9886 57.472C53.0553 57.472 52.3366 57.7893 51.8326 58.424C51.3286 59.04 51.0673 59.8893 51.0486 60.972H47.2406C47.3153 58.732 47.9779 57.0333 49.2286 55.876C50.4979 54.7187 52.1033 54.14 54.0446 54.14C56.1726 54.14 57.8059 54.7093 58.9446 55.848C60.0833 56.968 60.6526 58.452 60.6526 60.3C60.6526 61.756 60.2606 63.1467 59.4766 64.472C58.6926 65.7973 57.7966 66.9547 56.7886 67.944C55.7806 68.9147 54.4646 70.0907 52.8406 71.472H61.1006V74.72H47.2686V71.808L48.7246 70.576ZM65.0267 59.964C65.1201 58.0973 65.7734 56.66 66.9867 55.652C68.2187 54.6253 69.8334 54.112 71.8307 54.112C73.1934 54.112 74.3601 54.3547 75.3307 54.84C76.3014 55.3067 77.0294 55.9507 77.5147 56.772C78.0187 57.5747 78.2707 58.4893 78.2707 59.516C78.2707 60.692 77.9627 61.6907 77.3467 62.512C76.7494 63.3147 76.0307 63.856 75.1907 64.136V64.248C76.2734 64.584 77.1134 65.1813 77.7107 66.04C78.3267 66.8987 78.6347 68 78.6347 69.344C78.6347 70.464 78.3734 71.4627 77.8507 72.34C77.3467 73.2173 76.5907 73.908 75.5827 74.412C74.5934 74.8973 73.3987 75.14 71.9987 75.14C69.8894 75.14 68.1721 74.608 66.8467 73.544C65.5214 72.48 64.8214 70.912 64.7467 68.84H68.5547C68.5921 69.7547 68.9001 70.492 69.4787 71.052C70.0761 71.5933 70.8881 71.864 71.9147 71.864C72.8667 71.864 73.5947 71.6027 74.0987 71.08C74.6214 70.5387 74.8827 69.848 74.8827 69.008C74.8827 67.888 74.5281 67.0853 73.8187 66.6C73.1094 66.1147 72.0081 65.872 70.5147 65.872H69.7027V62.652H70.5147C73.1654 62.652 74.4907 61.7653 74.4907 59.992C74.4907 59.1893 74.2481 58.564 73.7627 58.116C73.2961 57.668 72.6147 57.444 71.7187 57.444C70.8414 57.444 70.1601 57.6867 69.6747 58.172C69.2081 58.6387 68.9374 59.236 68.8627 59.964H65.0267ZM85.3164 75.196C84.6071 75.196 84.0191 74.9813 83.5524 74.552C83.1044 74.104 82.8804 73.5533 82.8804 72.9C82.8804 72.2467 83.1044 71.7053 83.5524 71.276C84.0191 70.828 84.6071 70.604 85.3164 70.604C86.0071 70.604 86.5764 70.828 87.0244 71.276C87.4724 71.7053 87.6964 72.2467 87.6964 72.9C87.6964 73.5533 87.4724 74.104 87.0244 74.552C86.5764 74.9813 86.0071 75.196 85.3164 75.196ZM91.3299 58.2V54.588H98.0779V75H94.0459V58.2H91.3299ZM103.35 64.528C103.35 61.2987 103.929 58.7693 105.086 56.94C106.262 55.1107 108.204 54.196 110.91 54.196C113.617 54.196 115.549 55.1107 116.706 56.94C117.882 58.7693 118.47 61.2987 118.47 64.528C118.47 67.776 117.882 70.324 116.706 72.172C115.549 74.02 113.617 74.944 110.91 74.944C108.204 74.944 106.262 74.02 105.086 72.172C103.929 70.324 103.35 67.776 103.35 64.528ZM114.606 64.528C114.606 63.1467 114.513 61.9893 114.326 61.056C114.158 60.104 113.804 59.3293 113.262 58.732C112.74 58.1347 111.956 57.836 110.91 57.836C109.865 57.836 109.072 58.1347 108.53 58.732C108.008 59.3293 107.653 60.104 107.466 61.056C107.298 61.9893 107.214 63.1467 107.214 64.528C107.214 65.9467 107.298 67.1413 107.466 68.112C107.634 69.064 107.989 69.8387 108.53 70.436C109.072 71.0147 109.865 71.304 110.91 71.304C111.956 71.304 112.749 71.0147 113.29 70.436C113.832 69.8387 114.186 69.064 114.354 68.112C114.522 67.1413 114.606 65.9467 114.606 64.528Z" fill="#FDAE9C"/>
<path d="M2.4 28.728V32.904H6.64V33.832H2.4V38.072H7.12V39H1.28V27.8H7.12V28.728H2.4ZM16.6709 27.816V28.744H13.5669V39H12.4469V28.744H9.32688V27.816H16.6709ZM25.7194 36.344H20.6314L19.6554 39H18.4714L22.5514 27.96H23.8154L27.8794 39H26.6954L25.7194 36.344ZM25.3834 35.416L23.1754 29.368L20.9674 35.416H25.3834ZM37.6289 31.032C37.6289 31.992 37.3142 32.7653 36.6849 33.352C36.0555 33.9387 35.1115 34.232 33.8529 34.232H31.5969V39H30.4769V27.816H33.8529C35.1009 27.816 36.0395 28.1093 36.6689 28.696C37.3089 29.2827 37.6289 30.0613 37.6289 31.032ZM33.8529 33.272C35.6022 33.272 36.4769 32.5253 36.4769 31.032C36.4769 30.2853 36.2689 29.72 35.8529 29.336C35.4369 28.952 34.7702 28.76 33.8529 28.76H31.5969V33.272H33.8529ZM44.7148 28.536V27.528H47.4348V39H46.2988V28.536H44.7148Z" fill="#8B8B8B"/>
<path d="M374.883 245L372.111 240.104H370.923V245H368.403V232.436H373.119C374.091 232.436 374.919 232.61 375.603 232.958C376.287 233.294 376.797 233.756 377.133 234.344C377.481 234.92 377.655 235.568 377.655 236.288C377.655 237.116 377.415 237.866 376.935 238.538C376.455 239.198 375.741 239.654 374.793 239.906L377.799 245H374.883ZM370.923 238.214H373.029C373.713 238.214 374.223 238.052 374.559 237.728C374.895 237.392 375.063 236.93 375.063 236.342C375.063 235.766 374.895 235.322 374.559 235.01C374.223 234.686 373.713 234.524 373.029 234.524H370.923V238.214ZM386.667 245.126C385.491 245.126 384.411 244.85 383.427 244.298C382.443 243.746 381.663 242.984 381.087 242.012C380.511 241.028 380.223 239.918 380.223 238.682C380.223 237.458 380.511 236.36 381.087 235.388C381.663 234.404 382.443 233.636 383.427 233.084C384.411 232.532 385.491 232.256 386.667 232.256C387.855 232.256 388.935 232.532 389.907 233.084C390.891 233.636 391.665 234.404 392.229 235.388C392.805 236.36 393.093 237.458 393.093 238.682C393.093 239.918 392.805 241.028 392.229 242.012C391.665 242.984 390.891 243.746 389.907 244.298C388.923 244.85 387.843 245.126 386.667 245.126ZM386.667 242.876C387.423 242.876 388.089 242.708 388.665 242.372C389.241 242.024 389.691 241.532 390.015 240.896C390.339 240.26 390.501 239.522 390.501 238.682C390.501 237.842 390.339 237.11 390.015 236.486C389.691 235.85 389.241 235.364 388.665 235.028C388.089 234.692 387.423 234.524 386.667 234.524C385.911 234.524 385.239 234.692 384.651 235.028C384.075 235.364 383.625 235.85 383.301 236.486C382.977 237.11 382.815 237.842 382.815 238.682C382.815 239.522 382.977 240.26 383.301 240.896C383.625 241.532 384.075 242.024 384.651 242.372C385.239 242.708 385.911 242.876 386.667 242.876ZM398.441 242.876H404.093V245H395.525V243.056L401.141 234.56H395.525V232.436H404.093V234.38L398.441 242.876ZM420.836 232.436V245H418.316V236.828L414.95 245H413.042L409.658 236.828V245H407.138V232.436H410L413.996 241.778L417.992 232.436H420.836ZM430.06 245.126C428.884 245.126 427.804 244.85 426.82 244.298C425.836 243.746 425.056 242.984 424.48 242.012C423.904 241.028 423.616 239.918 423.616 238.682C423.616 237.458 423.904 236.36 424.48 235.388C425.056 234.404 425.836 233.636 426.82 233.084C427.804 232.532 428.884 232.256 430.06 232.256C431.248 232.256 432.328 232.532 433.3 233.084C434.284 233.636 435.058 234.404 435.622 235.388C436.198 236.36 436.486 237.458 436.486 238.682C436.486 239.918 436.198 241.028 435.622 242.012C435.058 242.984 434.284 243.746 433.3 244.298C432.316 244.85 431.236 245.126 430.06 245.126ZM430.06 242.876C430.816 242.876 431.482 242.708 432.058 242.372C432.634 242.024 433.084 241.532 433.408 240.896C433.732 240.26 433.894 239.522 433.894 238.682C433.894 237.842 433.732 237.11 433.408 236.486C433.084 235.85 432.634 235.364 432.058 235.028C431.482 234.692 430.816 234.524 430.06 234.524C429.304 234.524 428.632 234.692 428.044 235.028C427.468 235.364 427.018 235.85 426.694 236.486C426.37 237.11 426.208 237.842 426.208 238.682C426.208 239.522 426.37 240.26 426.694 240.896C427.018 241.532 427.468 242.024 428.044 242.372C428.632 242.708 429.304 242.876 430.06 242.876ZM456.055 232.436L452.545 245H449.575L447.217 236.054L444.751 245L441.799 245.018L438.415 232.436H441.115L443.329 242.192L445.885 232.436H448.693L451.105 242.138L453.337 232.436H456.055ZM468.59 232.436L464.342 240.626V245H461.822V240.626L457.556 232.436H460.4L463.1 238.178L465.782 232.436H468.59ZM483.225 245L478.653 239.402V245H476.133V232.436H478.653V238.07L483.225 232.436H486.267L481.083 238.664L486.411 245H483.225ZM505.762 232.436L502.252 245H499.282L496.924 236.054L494.458 245L491.506 245.018L488.122 232.436H490.822L493.036 242.192L495.592 232.436H498.4L500.812 242.138L503.044 232.436H505.762ZM516.012 242.606H511.008L510.18 245H507.534L512.052 232.418H514.986L519.504 245H516.84L516.012 242.606ZM515.328 240.59L513.51 235.334L511.692 240.59H515.328ZM524.612 243.002H528.752V245H522.092V232.436H524.612V243.002ZM533.774 232.436V245H531.254V232.436H533.774ZM544.922 232.436V234.47H539.684V237.692H543.698V239.69H539.684V245H537.164V232.436H544.922ZM550.129 232.436V245H547.609V232.436H550.129ZM560.611 245L556.039 239.402V245H553.519V232.436H556.039V238.07L560.611 232.436H563.653L558.469 238.664L563.797 245H560.611ZM574.058 242.606H569.054L568.226 245H565.58L570.098 232.418H573.032L577.55 245H574.886L574.058 242.606ZM573.374 240.59L571.556 235.334L569.738 240.59H573.374ZM579.527 238.7C579.527 237.464 579.803 236.36 580.355 235.388C580.919 234.404 581.681 233.642 582.641 233.102C583.613 232.55 584.699 232.274 585.899 232.274C587.303 232.274 588.533 232.634 589.589 233.354C590.645 234.074 591.383 235.07 591.803 236.342H588.905C588.617 235.742 588.209 235.292 587.681 234.992C587.165 234.692 586.565 234.542 585.881 234.542C585.149 234.542 584.495 234.716 583.919 235.064C583.355 235.4 582.911 235.88 582.587 236.504C582.275 237.128 582.119 237.86 582.119 238.7C582.119 239.528 582.275 240.26 582.587 240.896C582.911 241.52 583.355 242.006 583.919 242.354C584.495 242.69 585.149 242.858 585.881 242.858C586.565 242.858 587.165 242.708 587.681 242.408C588.209 242.096 588.617 241.64 588.905 241.04H591.803C591.383 242.324 590.645 243.326 589.589 244.046C588.545 244.754 587.315 245.108 585.899 245.108C584.699 245.108 583.613 244.838 582.641 244.298C581.681 243.746 580.919 242.984 580.355 242.012C579.803 241.04 579.527 239.936 579.527 238.7ZM604.845 232.436L600.597 240.626V245H598.077V240.626L593.811 232.436H596.655L599.355 238.178L602.037 232.436H604.845ZM614.525 232.436V241.256C614.525 242.48 614.171 243.434 613.463 244.118C612.755 244.79 611.807 245.126 610.619 245.126C609.419 245.126 608.447 244.778 607.703 244.082C606.971 243.386 606.605 242.414 606.605 241.166H609.125C609.137 241.706 609.263 242.126 609.503 242.426C609.755 242.726 610.115 242.876 610.583 242.876C611.039 242.876 611.387 242.732 611.627 242.444C611.867 242.156 611.987 241.76 611.987 241.256V232.436H614.525ZM629.11 245H626.59L620.884 236.378V245H618.364V232.418H620.884L626.59 241.058V232.418H629.11V245ZM635.021 234.47V237.62H639.251V239.618H635.021V242.948H639.791V245H632.501V232.418H639.791V234.47H635.021Z" fill="#525252"/>
<path d="M369.716 201.576C371.508 200.083 372.936 198.841 374 197.852C375.064 196.844 375.951 195.799 376.66 194.716C377.369 193.633 377.724 192.569 377.724 191.524C377.724 190.572 377.5 189.825 377.052 189.284C376.604 188.743 375.913 188.472 374.98 188.472C374.047 188.472 373.328 188.789 372.824 189.424C372.32 190.04 372.059 190.889 372.04 191.972H368.232C368.307 189.732 368.969 188.033 370.22 186.876C371.489 185.719 373.095 185.14 375.036 185.14C377.164 185.14 378.797 185.709 379.936 186.848C381.075 187.968 381.644 189.452 381.644 191.3C381.644 192.756 381.252 194.147 380.468 195.472C379.684 196.797 378.788 197.955 377.78 198.944C376.772 199.915 375.456 201.091 373.832 202.472H382.092V205.72H368.26V202.808L369.716 201.576ZM385.794 202.024V198.944L394.95 185.84H399.514V198.608H401.978V202.024H399.514V206H395.594V202.024H385.794ZM395.846 190.04L390.106 198.608H395.846V190.04ZM408.058 206.196C407.349 206.196 406.761 205.981 406.294 205.552C405.846 205.104 405.622 204.553 405.622 203.9C405.622 203.247 405.846 202.705 406.294 202.276C406.761 201.828 407.349 201.604 408.058 201.604C408.749 201.604 409.318 201.828 409.766 202.276C410.214 202.705 410.438 203.247 410.438 203.9C410.438 204.553 410.214 205.104 409.766 205.552C409.318 205.981 408.749 206.196 408.058 206.196ZM414.071 189.2V185.588H420.819V206H416.787V189.2H414.071ZM426.092 195.528C426.092 192.299 426.67 189.769 427.828 187.94C429.004 186.111 430.945 185.196 433.652 185.196C436.358 185.196 438.29 186.111 439.448 187.94C440.624 189.769 441.212 192.299 441.212 195.528C441.212 198.776 440.624 201.324 439.448 203.172C438.29 205.02 436.358 205.944 433.652 205.944C430.945 205.944 429.004 205.02 427.828 203.172C426.67 201.324 426.092 198.776 426.092 195.528ZM437.348 195.528C437.348 194.147 437.254 192.989 437.068 192.056C436.9 191.104 436.545 190.329 436.004 189.732C435.481 189.135 434.697 188.836 433.652 188.836C432.606 188.836 431.813 189.135 431.272 189.732C430.749 190.329 430.394 191.104 430.208 192.056C430.04 192.989 429.956 194.147 429.956 195.528C429.956 196.947 430.04 198.141 430.208 199.112C430.376 200.064 430.73 200.839 431.272 201.436C431.813 202.015 432.606 202.304 433.652 202.304C434.697 202.304 435.49 202.015 436.032 201.436C436.573 200.839 436.928 200.064 437.096 199.112C437.264 198.141 437.348 196.947 437.348 195.528ZM457.969 194.352V197.656H446.097V194.352H457.969ZM463.15 202.024V198.944L472.306 185.84H476.87V198.608H479.334V202.024H476.87V206H472.95V202.024H463.15ZM473.202 190.04L467.462 198.608H473.202V190.04ZM485.413 206.196C484.704 206.196 484.116 205.981 483.649 205.552C483.201 205.104 482.977 204.553 482.977 203.9C482.977 203.247 483.201 202.705 483.649 202.276C484.116 201.828 484.704 201.604 485.413 201.604C486.104 201.604 486.673 201.828 487.121 202.276C487.569 202.705 487.793 203.247 487.793 203.9C487.793 204.553 487.569 205.104 487.121 205.552C486.673 205.981 486.104 206.196 485.413 206.196ZM491.427 189.2V185.588H498.175V206H494.143V189.2H491.427ZM502.971 189.2V185.588H509.719V206H505.687V189.2H502.971Z" fill="#FDAE9C"/>
<path d="M369.4 159.728V163.904H373.64V164.832H369.4V169.072H374.12V170H368.28V158.8H374.12V159.728H369.4ZM383.671 158.816V159.744H380.567V170H379.447V159.744H376.327V158.816H383.671ZM392.719 167.344H387.631L386.655 170H385.471L389.551 158.96H390.815L394.879 170H393.695L392.719 167.344ZM392.383 166.416L390.175 160.368L387.967 166.416H392.383ZM404.629 162.032C404.629 162.992 404.314 163.765 403.685 164.352C403.056 164.939 402.112 165.232 400.853 165.232H398.597V170H397.477V158.816H400.853C402.101 158.816 403.04 159.109 403.669 159.696C404.309 160.283 404.629 161.061 404.629 162.032ZM400.853 164.272C402.602 164.272 403.477 163.525 403.477 162.032C403.477 161.285 403.269 160.72 402.853 160.336C402.437 159.952 401.77 159.76 400.853 159.76H398.597V164.272H400.853ZM412.035 169.12C413.997 167.648 415.512 166.331 416.579 165.168C417.656 163.995 418.195 162.848 418.195 161.728C418.195 160.992 418.008 160.405 417.635 159.968C417.272 159.52 416.675 159.296 415.843 159.296C415.032 159.296 414.403 159.552 413.955 160.064C413.517 160.565 413.272 161.237 413.219 162.08H412.131C412.195 160.896 412.557 159.979 413.219 159.328C413.891 158.667 414.765 158.336 415.843 158.336C416.877 158.336 417.715 158.629 418.355 159.216C418.995 159.792 419.315 160.613 419.315 161.68C419.315 162.971 418.776 164.224 417.699 165.44C416.632 166.645 415.315 167.824 413.747 168.976H419.667V169.92H412.035V169.12Z" fill="#8B8B8B"/>
<path d="M7.38103 379.126C6.20503 379.126 5.12503 378.85 4.14103 378.298C3.15703 377.746 2.37703 376.984 1.80103 376.012C1.22503 375.028 0.93703 373.918 0.93703 372.682C0.93703 371.458 1.22503 370.36 1.80103 369.388C2.37703 368.404 3.15703 367.636 4.14103 367.084C5.12503 366.532 6.20503 366.256 7.38103 366.256C8.56903 366.256 9.64903 366.532 10.621 367.084C11.605 367.636 12.379 368.404 12.943 369.388C13.519 370.36 13.807 371.458 13.807 372.682C13.807 373.918 13.519 375.028 12.943 376.012C12.379 376.984 11.605 377.746 10.621 378.298C9.63703 378.85 8.55703 379.126 7.38103 379.126ZM7.38103 376.876C8.13703 376.876 8.80303 376.708 9.37903 376.372C9.95503 376.024 10.405 375.532 10.729 374.896C11.053 374.26 11.215 373.522 11.215 372.682C11.215 371.842 11.053 371.11 10.729 370.486C10.405 369.85 9.95503 369.364 9.37903 369.028C8.80303 368.692 8.13703 368.524 7.38103 368.524C6.62503 368.524 5.95303 368.692 5.36503 369.028C4.78903 369.364 4.33903 369.85 4.01503 370.486C3.69103 371.11 3.52903 371.842 3.52903 372.682C3.52903 373.522 3.69103 374.26 4.01503 374.896C4.33903 375.532 4.78903 376.024 5.36503 376.372C5.95303 376.708 6.62503 376.876 7.38103 376.876ZM25.3298 370.216C25.0418 369.688 24.6458 369.286 24.1418 369.01C23.6378 368.734 23.0498 368.596 22.3778 368.596C21.6338 368.596 20.9738 368.764 20.3978 369.1C19.8218 369.436 19.3718 369.916 19.0478 370.54C18.7238 371.164 18.5618 371.884 18.5618 372.7C18.5618 373.54 18.7238 374.272 19.0478 374.896C19.3838 375.52 19.8458 376 20.4338 376.336C21.0218 376.672 21.7058 376.84 22.4858 376.84C23.4458 376.84 24.2318 376.588 24.8438 376.084C25.4558 375.568 25.8578 374.854 26.0498 373.942H21.7298V372.016H28.5338V374.212C28.3658 375.088 28.0058 375.898 27.4538 376.642C26.9018 377.386 26.1878 377.986 25.3118 378.442C24.4478 378.886 23.4758 379.108 22.3958 379.108C21.1838 379.108 20.0858 378.838 19.1018 378.298C18.1298 377.746 17.3618 376.984 16.7978 376.012C16.2458 375.04 15.9698 373.936 15.9698 372.7C15.9698 371.464 16.2458 370.36 16.7978 369.388C17.3618 368.404 18.1298 367.642 19.1018 367.102C20.0858 366.55 21.1778 366.274 22.3778 366.274C23.7938 366.274 25.0238 366.622 26.0678 367.318C27.1118 368.002 27.8318 368.968 28.2278 370.216H25.3298ZM38.1742 377.074V379H31.5142V373.906L30.2182 374.302V372.268L31.5142 371.872V366.436H34.0522V371.062L35.6362 370.576V372.628L34.0522 373.114V377.074H38.1742ZM46.3623 379.126C45.1863 379.126 44.1063 378.85 43.1223 378.298C42.1383 377.746 41.3583 376.984 40.7823 376.012C40.2063 375.028 39.9183 373.918 39.9183 372.682C39.9183 371.458 40.2063 370.36 40.7823 369.388C41.3583 368.404 42.1383 367.636 43.1223 367.084C44.1063 366.532 45.1863 366.256 46.3623 366.256C47.5503 366.256 48.6303 366.532 49.6023 367.084C50.5863 367.636 51.3603 368.404 51.9243 369.388C52.5003 370.36 52.7883 371.458 52.7883 372.682C52.7883 373.918 52.5003 375.028 51.9243 376.012C51.3603 376.984 50.5863 377.746 49.6023 378.298C48.6183 378.85 47.5383 379.126 46.3623 379.126ZM46.3623 376.876C47.1183 376.876 47.7843 376.708 48.3603 376.372C48.9363 376.024 49.3863 375.532 49.7103 374.896C50.0343 374.26 50.1963 373.522 50.1963 372.682C50.1963 371.842 50.0343 371.11 49.7103 370.486C49.3863 369.85 48.9363 369.364 48.3603 369.028C47.7843 368.692 47.1183 368.524 46.3623 368.524C45.6063 368.524 44.9343 368.692 44.3463 369.028C43.7703 369.364 43.3203 369.85 42.9963 370.486C42.6723 371.11 42.5103 371.842 42.5103 372.682C42.5103 373.522 42.6723 374.26 42.9963 374.896C43.3203 375.532 43.7703 376.024 44.3463 376.372C44.9343 376.708 45.6063 376.876 46.3623 376.876ZM59.9011 379.126C59.0251 379.126 58.2331 378.976 57.5251 378.676C56.8291 378.376 56.2771 377.944 55.8691 377.38C55.4611 376.816 55.2511 376.15 55.2391 375.382H57.9391C57.9751 375.898 58.1551 376.306 58.4791 376.606C58.8151 376.906 59.2711 377.056 59.8471 377.056C60.4351 377.056 60.8971 376.918 61.2331 376.642C61.5691 376.354 61.7371 375.982 61.7371 375.526C61.7371 375.154 61.6231 374.848 61.3951 374.608C61.1671 374.368 60.8791 374.182 60.5311 374.05C60.1951 373.906 59.7271 373.75 59.1271 373.582C58.3111 373.342 57.6451 373.108 57.1291 372.88C56.6251 372.64 56.1871 372.286 55.8151 371.818C55.4551 371.338 55.2751 370.702 55.2751 369.91C55.2751 369.166 55.4611 368.518 55.8331 367.966C56.2051 367.414 56.7271 366.994 57.3991 366.706C58.0711 366.406 58.8391 366.256 59.7031 366.256C60.9991 366.256 62.0491 366.574 62.8531 367.21C63.6691 367.834 64.1191 368.71 64.2031 369.838H61.4311C61.4071 369.406 61.2211 369.052 60.8731 368.776C60.5371 368.488 60.0871 368.344 59.5231 368.344C59.0311 368.344 58.6351 368.47 58.3351 368.722C58.0471 368.974 57.9031 369.34 57.9031 369.82C57.9031 370.156 58.0111 370.438 58.2271 370.666C58.4551 370.882 58.7311 371.062 59.0551 371.206C59.3911 371.338 59.8591 371.494 60.4591 371.674C61.2751 371.914 61.9411 372.154 62.4571 372.394C62.9731 372.634 63.4171 372.994 63.7891 373.474C64.1611 373.954 64.3471 374.584 64.3471 375.364C64.3471 376.036 64.1731 376.66 63.8251 377.236C63.4771 377.812 62.9671 378.274 62.2951 378.622C61.6231 378.958 60.8251 379.126 59.9011 379.126ZM70.0058 376.876H75.6578V379H67.0898V377.056L72.7058 368.56H67.0898V366.436H75.6578V368.38L70.0058 376.876ZM81.2229 368.47V371.62H85.4529V373.618H81.2229V376.948H85.9929V379H78.7029V366.418H85.9929V368.47H81.2229ZM99.929 379H97.409L91.703 370.378V379H89.183V366.418H91.703L97.409 375.058V366.418H99.929V379ZM105.839 366.436V379H103.319V366.436H105.839ZM111.749 368.47V371.62H115.979V373.618H111.749V376.948H116.519V379H109.229V366.418H116.519V368.47H111.749ZM141.692 366.436L138.182 379H135.212L132.854 370.054L130.388 379L127.436 379.018L124.052 366.436H126.752L128.966 376.192L131.522 366.436H134.33L136.742 376.138L138.974 366.436H141.692ZM154.228 366.436L149.98 374.626V379H147.46V374.626L143.194 366.436H146.038L148.738 372.178L151.42 366.436H154.228ZM167.327 379H164.807L159.101 370.378V379H156.581V366.418H159.101L164.807 375.058V366.418H167.327V379ZM173.237 366.436V379H170.717V366.436H173.237ZM183.719 379L179.147 373.402V379H176.627V366.436H179.147V372.07L183.719 366.436H186.761L181.577 372.664L186.905 379H183.719ZM195.295 379.126C194.119 379.126 193.039 378.85 192.055 378.298C191.071 377.746 190.291 376.984 189.715 376.012C189.139 375.028 188.851 373.918 188.851 372.682C188.851 371.458 189.139 370.36 189.715 369.388C190.291 368.404 191.071 367.636 192.055 367.084C193.039 366.532 194.119 366.256 195.295 366.256C196.483 366.256 197.563 366.532 198.535 367.084C199.519 367.636 200.293 368.404 200.857 369.388C201.433 370.36 201.721 371.458 201.721 372.682C201.721 373.918 201.433 375.028 200.857 376.012C200.293 376.984 199.519 377.746 198.535 378.298C197.551 378.85 196.471 379.126 195.295 379.126ZM195.295 376.876C196.051 376.876 196.717 376.708 197.293 376.372C197.869 376.024 198.319 375.532 198.643 374.896C198.967 374.26 199.129 373.522 199.129 372.682C199.129 371.842 198.967 371.11 198.643 370.486C198.319 369.85 197.869 369.364 197.293 369.028C196.717 368.692 196.051 368.524 195.295 368.524C194.539 368.524 193.867 368.692 193.279 369.028C192.703 369.364 192.253 369.85 191.929 370.486C191.605 371.11 191.443 371.842 191.443 372.682C191.443 373.522 191.605 374.26 191.929 374.896C192.253 375.532 192.703 376.024 193.279 376.372C193.867 376.708 194.539 376.876 195.295 376.876ZM197.257 363.826L193.117 365.716V363.916L197.257 361.774V363.826ZM221.29 366.436L217.78 379H214.81L212.452 370.054L209.986 379L207.034 379.018L203.65 366.436H206.35L208.564 376.192L211.12 366.436H213.928L216.34 376.138L218.572 366.436H221.29Z" fill="#525252"/>
<path d="M12.068 321.684C11.8813 320.9 11.5547 320.312 11.088 319.92C10.64 319.528 9.98667 319.332 9.128 319.332C7.84 319.332 6.888 319.855 6.272 320.9C5.67467 321.927 5.36667 323.607 5.348 325.94C5.796 325.193 6.44933 324.615 7.308 324.204C8.16667 323.775 9.1 323.56 10.108 323.56C11.3213 323.56 12.3947 323.821 13.328 324.344C14.2613 324.867 14.9893 325.632 15.512 326.64C16.0347 327.629 16.296 328.824 16.296 330.224C16.296 331.549 16.0253 332.735 15.484 333.78C14.9613 334.807 14.1867 335.609 13.16 336.188C12.1333 336.767 10.9107 337.056 9.492 337.056C7.55067 337.056 6.02 336.627 4.9 335.768C3.79867 334.909 3.024 333.715 2.576 332.184C2.14667 330.635 1.932 328.731 1.932 326.472C1.932 323.056 2.52 320.48 3.696 318.744C4.872 316.989 6.72933 316.112 9.268 316.112C11.228 316.112 12.7493 316.644 13.832 317.708C14.9147 318.772 15.54 320.097 15.708 321.684H12.068ZM9.212 326.78C8.22267 326.78 7.392 327.069 6.72 327.648C6.048 328.227 5.712 329.067 5.712 330.168C5.712 331.269 6.02 332.137 6.636 332.772C7.27067 333.407 8.15733 333.724 9.296 333.724C10.304 333.724 11.0973 333.416 11.676 332.8C12.2733 332.184 12.572 331.353 12.572 330.308C12.572 329.225 12.2827 328.367 11.704 327.732C11.144 327.097 10.3133 326.78 9.212 326.78ZM22.9782 337.196C22.2688 337.196 21.6808 336.981 21.2142 336.552C20.7662 336.104 20.5422 335.553 20.5422 334.9C20.5422 334.247 20.7662 333.705 21.2142 333.276C21.6808 332.828 22.2688 332.604 22.9782 332.604C23.6688 332.604 24.2382 332.828 24.6862 333.276C25.1342 333.705 25.3582 334.247 25.3582 334.9C25.3582 335.553 25.1342 336.104 24.6862 336.552C24.2382 336.981 23.6688 337.196 22.9782 337.196ZM28.9916 320.2V316.588H35.7396V337H31.7076V320.2H28.9916ZM40.5361 320.2V316.588H47.2841V337H43.2521V320.2H40.5361Z" fill="#FDAE9C"/>
<path d="M2.4 290.728V294.904H6.64V295.832H2.4V300.072H7.12V301H1.28V289.8H7.12V290.728H2.4ZM16.6709 289.816V290.744H13.5669V301H12.4469V290.744H9.32688V289.816H16.6709ZM25.7194 298.344H20.6314L19.6554 301H18.4714L22.5514 289.96H23.8154L27.8794 301H26.6954L25.7194 298.344ZM25.3834 297.416L23.1754 291.368L20.9674 297.416H25.3834ZM37.6289 293.032C37.6289 293.992 37.3142 294.765 36.6849 295.352C36.0555 295.939 35.1115 296.232 33.8529 296.232H31.5969V301H30.4769V289.816H33.8529C35.1009 289.816 36.0395 290.109 36.6689 290.696C37.3089 291.283 37.6289 292.061 37.6289 293.032ZM33.8529 295.272C35.6022 295.272 36.4769 294.525 36.4769 293.032C36.4769 292.285 36.2689 291.72 35.8529 291.336C35.4369 290.952 34.7702 290.76 33.8529 290.76H31.5969V295.272H33.8529ZM45.2108 292.456C45.2854 291.485 45.6588 290.723 46.3307 290.168C47.0134 289.603 47.8934 289.32 48.9708 289.32C49.6854 289.32 50.2988 289.448 50.8108 289.704C51.3228 289.96 51.7068 290.312 51.9628 290.76C52.2294 291.197 52.3628 291.693 52.3628 292.248C52.3628 292.92 52.1654 293.501 51.7708 293.992C51.3761 294.483 50.8161 294.787 50.0908 294.904V294.984C50.8481 295.133 51.4508 295.464 51.8988 295.976C52.3468 296.477 52.5708 297.139 52.5708 297.96C52.5708 298.877 52.2614 299.629 51.6428 300.216C51.0348 300.792 50.1494 301.08 48.9868 301.08C47.8774 301.08 46.9654 300.792 46.2508 300.216C45.5361 299.629 45.1254 298.803 45.0188 297.736H46.1068C46.2028 298.451 46.5014 299.032 47.0028 299.48C47.5041 299.917 48.1654 300.136 48.9868 300.136C49.7974 300.136 50.4161 299.923 50.8428 299.496C51.2801 299.069 51.4988 298.525 51.4988 297.864C51.4988 296.243 50.3308 295.432 47.9948 295.432H47.6428V294.488H48.0108C50.1868 294.488 51.2748 293.779 51.2748 292.36C51.2748 291.741 51.0721 291.245 50.6668 290.872C50.2614 290.488 49.6854 290.296 48.9388 290.296C48.2134 290.296 47.6108 290.488 47.1308 290.872C46.6614 291.245 46.3841 291.773 46.2988 292.456H45.2108Z" fill="#8B8B8B"/>
</svg>
